<svg xmlns="http://www.w3.org/2000/svg" viewBox="0 0 1125 2209"><defs><style>.cls-1{fill:#0d0007;}</style></defs><g id="レイヤー_2" data-name="レイヤー 2"><g id="レイヤー_1-2" data-name="レイヤー 1"><path class="cls-1" d="M589.51,2208.5a77.27,77.27,0,0,0,64.54-68.14V1186.58a96.61,96.61,0,0,0-193.22,0v776a92.58,92.58,0,0,1-185.15,0V1276.63a45,45,0,1,0-90,0v860.15a77.61,77.61,0,0,0,64.91,71.72H.5V.5h1124V2019.22A92.61,92.61,0,0,1,986.69,2100l-.24-.15a92.51,92.51,0,0,1-47.1-80.64V1356.55a50.08,50.08,0,0,0-100.15,0v785.83a77.76,77.76,0,0,0,64.41,66.12Z"/><path d="M1124,1V2019.22a92.11,92.11,0,0,1-136.8,80.5h0l-.51-.29a92,92,0,0,1-46.84-80.21V1356.55a50.58,50.58,0,0,0-101.15,0v786A78,78,0,0,0,898.43,2208H594.59a78,78,0,0,0,59.95-67.58V1186.58a97.11,97.11,0,0,0-194.22,0v776a92.08,92.08,0,1,1-184.15,0V1276.63a45.52,45.52,0,1,0-91,0v860.21A78.12,78.12,0,0,0,245.43,2208H1V1H1124m1-1H0V2209H263a77,77,0,0,1-76.85-72.22V1276.63a44.52,44.52,0,1,1,89,0v685.93a93.08,93.08,0,0,0,186.15,0v-776a96.11,96.11,0,1,1,192.22,0v953.73A77,77,0,0,1,577,2209H916a77,77,0,0,1-76.3-66.62V1356.55a49.58,49.58,0,0,1,99.15,0v662.67a93.05,93.05,0,0,0,47.35,81.08h0a93.09,93.09,0,0,0,138.8-81.09V0Z"/></g></g></svg>